<svg xmlns="http://www.w3.org/2000/svg" width="29.604" height="26.548" viewBox="0 0 29.604 26.548">
  <g id="Group_10578" data-name="Group 10578" transform="translate(0 0)">
    <path id="Path_21313" data-name="Path 21313" d="M35.156,29.936c2.2-3,1.83-8.522-2.141-11.562-5.828-4.492-14.479-.415-14.479,6.989,0,7.422,8.311,10.541,12.685,8.118a.519.519,0,0,1,.538.011,8.745,8.745,0,0,0,4.415.949.241.241,0,0,0,.179-.411A4.165,4.165,0,0,1,35.156,29.936Z" transform="translate(-6.895 -7.893)" fill="#d3d3d3"/>
    <path id="Path_21314" data-name="Path 21314" d="M28.51,13.8a13.195,13.195,0,0,0-25.7,4.093,10.489,10.489,0,0,0,1.925,6.72c.422.57.522,3.85-1.762,6.024a.359.359,0,0,0,.264.607,12.908,12.908,0,0,0,6.5-1.4.762.762,0,0,1,.791-.016,10.37,10.37,0,0,0,5.47,1.087,13.449,13.449,0,0,0,2.128-.169,9.87,9.87,0,0,1-4.728-8.407A10.041,10.041,0,0,1,28.51,13.8Z" transform="translate(-2.807 -4.871)" fill="#efefef"/>
  </g>
</svg>
