<svg xmlns="http://www.w3.org/2000/svg" width="69.5" height="69.5" viewBox="0 0 69.5 69.5">
  <g id="add_photo_defult" transform="translate(176.92 -7.25)">
    <g id="Group_11876" data-name="Group 11876">
      <circle id="Ellipse_686" data-name="Ellipse 686" cx="31.25" cy="31.25" r="31.25" transform="translate(-173.42 10.75)" fill="#fff"/>
      <path id="Path_18002" data-name="Path 18002" d="M-142.17,7.25A34.791,34.791,0,0,0-176.92,42a34.791,34.791,0,0,0,34.75,34.75A34.791,34.791,0,0,0-107.42,42,34.791,34.791,0,0,0-142.17,7.25Zm0,66A31.287,31.287,0,0,1-173.42,42a31.287,31.287,0,0,1,31.25-31.25A31.287,31.287,0,0,1-110.92,42,31.287,31.287,0,0,1-142.17,73.25Z" fill="#3A405A"/>
    </g>
    <g id="Group_11877" data-name="Group 11877">
      <g id="Path_13446" data-name="Path 13446">
        <path id="Path_18003" data-name="Path 18003" d="M-137.544,49.48a9.825,9.825,0,0,1-7.887-3.939,1.749,1.749,0,0,1,.353-2.449,1.751,1.751,0,0,1,2.45.353,6.341,6.341,0,0,0,8.864,1.278,6.464,6.464,0,0,0,.686-.594l4.85-4.85a6.34,6.34,0,0,0,0-8.956,6.339,6.339,0,0,0-8.955,0l-2.783,2.77a1.752,1.752,0,0,1-2.475-.007,1.75,1.75,0,0,1,.006-2.475l2.78-2.766a9.843,9.843,0,0,1,13.9,0,9.768,9.768,0,0,1,2.88,6.952,9.768,9.768,0,0,1-2.88,6.952L-130.6,46.6a9.8,9.8,0,0,1-1.064.921A9.78,9.78,0,0,1-137.544,49.48Z" fill="#3A405A"/>
      </g>
      <g id="Path_13447" data-name="Path 13447">
        <path id="Path_18004" data-name="Path 18004" d="M-151.637,59.944a9.805,9.805,0,0,1-7.031-2.952,9.76,9.76,0,0,1-2.8-6.982,9.766,9.766,0,0,1,2.954-6.921l4.837-4.836a9.645,9.645,0,0,1,1.065-.922,9.762,9.762,0,0,1,7.292-1.859,9.768,9.768,0,0,1,6.471,3.842,1.75,1.75,0,0,1-.353,2.45,1.75,1.75,0,0,1-2.45-.353,6.3,6.3,0,0,0-4.167-2.475,6.3,6.3,0,0,0-4.7,1.2,6.355,6.355,0,0,0-.685.594l-4.851,4.85a6.307,6.307,0,0,0-1.917,4.471,6.292,6.292,0,0,0,1.806,4.5,6.34,6.34,0,0,0,8.955.1l2.873-2.875a1.751,1.751,0,0,1,2.474,0,1.75,1.75,0,0,1,0,2.475l-2.909,2.911A9.779,9.779,0,0,1-151.637,59.944Z" fill="#3A405A"/>
      </g>
    </g>
  </g>
</svg>
