<svg xmlns="http://www.w3.org/2000/svg" width="12" height="10" viewBox="0 0 12 10">
  <path id="name_icon" d="M10.625,1H8V.875A.876.876,0,0,0,7.125,0H4.875A.876.876,0,0,0,4,.875V1H1.375A1.376,1.376,0,0,0,0,2.375v6.25A1.376,1.376,0,0,0,1.375,10h9.25A1.376,1.376,0,0,0,12,8.625V2.375A1.376,1.376,0,0,0,10.625,1ZM7,2H5V1H7ZM3.75,3.5A1.25,1.25,0,1,1,2.5,4.75,1.252,1.252,0,0,1,3.75,3.5ZM6,8.125a.375.375,0,0,1-.375.375H1.875A.375.375,0,0,1,1.5,8.125v-.25A1.376,1.376,0,0,1,2.875,6.5h1.75A1.376,1.376,0,0,1,6,7.875Zm4.125.375H7.375a.375.375,0,0,1,0-.75h2.75a.375.375,0,0,1,0,.75Zm0-2H7.375a.375.375,0,0,1,0-.75h2.75a.375.375,0,0,1,0,.75Zm0-2H7.375a.375.375,0,1,1,0-.75h2.75a.375.375,0,1,1,0,.75Zm0,0" transform="translate(0 0)" fill="#363636"/>
</svg>
